<?xml version="1.0" encoding="iso-8859-1"?>
<!-- Generator: Adobe Illustrator 19.0.0, SVG Export Plug-In . SVG Version: 6.00 Build 0)  -->
<svg version="1.1" id="Layer_1" xmlns="http://www.w3.org/2000/svg" xmlns:xlink="http://www.w3.org/1999/xlink" x="0px" y="0px"
	 viewBox="0 0 508 508" style="enable-background:new 0 0 508 508;" xml:space="preserve">
<circle style="fill:#FD8469;" cx="254" cy="254" r="254"/>
<path style="fill:#FFD05B;" d="M307.2,497.6V311.2c-3.6-2.4-6.8-6-8.4-10c-1.2-2.4-2-5.2-2.4-8.4l-4-53.6h-76.8l-2.8,40.4l0,0
	l-0.8,13.2c-0.4,8-5.2,14.8-11.6,18.8v185.6h106.8V497.6z"/>
<path style="fill:#F9B54C;" d="M298.8,301.2L298.8,301.2c-64,50.8-85.6-19.2-86-21.6l0,0l2.8-40.4h77.2l4,53.6
	C296.8,296,297.2,298.8,298.8,301.2z"/>
<path style="fill:#324A5E;" d="M327.6,204.8c0,50.4-33.2,114-73.6,114c-40.8,0-73.6-63.6-73.6-114S213.2,136,254,136
	S327.6,154.4,327.6,204.8z"/>
<g>
	<rect x="196" y="338" style="fill:#E6E9EE;" width="116" height="159.6"/>
	<path style="fill:#E6E9EE;" d="M438,428.8C438,300,304.4,308,302.4,306c0,0-3.2-0.8-3.6,0c-7.6,26-45.6,32-45.6,32
		s-32.4-4.4-44.8-32c-0.4-0.8-3.2,0-3.2,0S70,299.2,70,428.8c45.2,47.6,108.8,77.6,179.2,79.2c0.8,0,1.6,0,2.4,0c0.8,0,1.6,0,2.4,0
		c0.8,0,1.6,0,2.4,0l0,0C328,507.2,392.4,477.2,438,428.8z"/>
</g>
<polygon style="fill:#2B3B4E;" points="262.8,351.6 267.2,337.2 240.8,337.2 245.2,351.6 "/>
<polygon style="fill:#324A5E;" points="245.2,351.6 224,436.8 254.4,477.2 284,436.8 262.8,351.6 "/>
<g>
	<path style="fill:#FFFFFF;" d="M298.8,301.6c0,0-3.2,18-44.8,36.4c0,0,30.8,19.2,36.4,34.8C290.4,372.8,318.8,334,298.8,301.6z"/>
	<path style="fill:#FFFFFF;" d="M209.6,301.6c0,0,3.2,18,44.8,36.4c0,0-30.8,19.2-36.4,34.8C217.6,372.8,189.2,334,209.6,301.6z"/>
</g>
<polygon style="fill:#324A5E;" points="408.4,341.6 325.2,318.8 336,304 397.6,320.8 "/>
<g>
	<polygon style="fill:#FFD05B;" points="384,316.8 390,336.4 397.6,338.4 389.6,318.4 	"/>
	<polygon style="fill:#FFD05B;" points="375.6,314.8 378.4,333.2 386.4,335.6 381.2,316.4 	"/>
	<polygon style="fill:#FFD05B;" points="352.4,308.4 347.6,324.8 355.2,327.2 358.4,310 	"/>
	<polygon style="fill:#FFD05B;" points="344,306.4 336,322 344,324 350,307.6 	"/>
</g>
<polygon style="fill:#324A5E;" points="99.6,341.6 182.8,318.8 172,304 110.4,320.8 "/>
<g>
	<polygon style="fill:#FFD05B;" points="124,316.8 118,336.4 110.4,338.4 118.4,318.4 	"/>
	<polygon style="fill:#FFD05B;" points="132.4,314.8 129.6,333.2 121.6,335.6 126.8,316.4 	"/>
	<polygon style="fill:#FFD05B;" points="155.6,308.4 160.4,324.8 152.8,327.2 149.6,310 	"/>
	<polygon style="fill:#FFD05B;" points="164,306.4 172,322 164,324 158,307.6 	"/>
</g>
<ellipse style="fill:#2B3B4E;" cx="254" cy="174.4" rx="85.2" ry="84"/>
<g>
	<path style="fill:#FFD05B;" d="M254,276c33.2,0,62-22.8,70-55.2c2.4-10.8,4-21.6,4-32c0-50.4-33.2-68.8-73.6-68.8
		c-40.8,0-73.6,18.4-73.6,68.8c0,10.4,1.2,21.2,4,32C192,253.2,220.8,276,254,276L254,276z"/>
	<path style="fill:#FFD05B;" d="M340.4,219.6c-5.2,12-14.4,18.8-20.8,15.2s-7.2-15.6-2-27.6s14.4-18.8,20.8-15.2
		C344.8,195.2,346,207.6,340.4,219.6z"/>
	<path style="fill:#FFD05B;" d="M167.6,219.6c5.2,12,14.8,18.8,20.8,15.2c6.4-3.6,7.2-15.6,2-27.6s-14.8-18.8-20.8-15.2
		C163.2,195.2,162,207.6,167.6,219.6z"/>
</g>
<path style="fill:#FFFFFF;" d="M176,119.2h156.4c15.6-6,27.6-14.4,32.4-24C378,68,330,40.8,254,40.8S130,68.4,143.6,95.2
	C148.4,104.8,160.4,113.2,176,119.2z"/>
<path style="fill:#ACB3BA;" d="M176,119.2c50-16.4,106.4-16.4,156.4,0c0,7.2,0,14.4,0,21.6c-52,0-104.4,0-156.4,0
	C176,133.6,176,126.4,176,119.2z"/>
<path style="fill:#324A5E;" d="M254,250.4c-14-7.2-19.6,14.4-42,2c0,0,8.8,24.4,42,9.6c33.2,14.4,42-9.6,42-9.6
	C273.6,264.8,268,243.2,254,250.4z"/>
<path style="fill:#FFFFFF;" d="M332.4,137.2c0,20.4-35.2,36.8-78.4,36.8s-78.4-16.4-78.4-36.8c0,0,35.2,1.2,78.4,1.2
	S332.4,137.2,332.4,137.2z"/>
<path style="fill:#324A5E;" d="M270.8,78.8c0-1.2-0.8-2-2-2s-2,0.8-2,2c0,6.4-4.8,11.6-10.8,12.8V72h5.2c1.2,0,2-0.8,2-2s-0.8-2-2-2
	H256v-4.4c3.2-0.8,5.6-3.6,5.6-7.2c0-4-3.2-7.6-7.6-7.6c-4,0-7.6,3.2-7.6,7.6c0,3.6,2.4,6.4,5.6,7.2V68h-5.2c-1.2,0-2,0.8-2,2
	s0.8,2,2,2h5.2v19.6c-6-0.8-10.8-6.4-10.8-12.8c0-1.2-0.8-2-2-2s-2,0.8-2,2c0,8.4,6.4,15.6,14.8,16.4V96c0,1.2,0.8,2,2,2
	c1.2,0,2-0.8,2-2v-0.8C264,94.4,270.8,87.2,270.8,78.8z M250.4,56.4c0-2,1.6-3.6,3.6-3.6s3.6,1.6,3.6,3.6S256,60,254,60l0,0l0,0
	C252,60,250.4,58.4,250.4,56.4z"/>
<g>
</g>
<g>
</g>
<g>
</g>
<g>
</g>
<g>
</g>
<g>
</g>
<g>
</g>
<g>
</g>
<g>
</g>
<g>
</g>
<g>
</g>
<g>
</g>
<g>
</g>
<g>
</g>
<g>
</g>
</svg>
